<?xml version="1.0" standalone="no"?><!DOCTYPE svg PUBLIC "-//W3C//DTD SVG 1.1//EN" "http://www.w3.org/Graphics/SVG/1.1/DTD/svg11.dtd"><svg class="icon" height="512" viewBox="0 0 1024 1024" version="1.1" xmlns="http://www.w3.org/2000/svg"><path d="M511.653099 21.653159c-270.324752 0-491.165486 220.840734-491.165486 491.165486 0 270.318612 220.840734 491.159346 491.165486 491.159346 270.318612 0 491.159346-220.840734 491.159346-491.159346C1002.812445 242.494916 783.180236 21.653159 511.653099 21.653159L511.653099 21.653159zM511.653099 69.923536c244.977457 0 442.889993 199.12106 442.889993 442.896132 0 102.577237-34.999119 195.499579-92.922343 271.527137-8.450463-7.241938-18.104333-13.274328-28.961612-18.104333-67.583235-33.790594-41.033555-8.445346-124.302027-42.23594-83.269495-35.000142-102.577237-45.857421-102.577237-45.857421l-1.204431-78.444607c0 0 31.373545-24.13263 41.028439-97.748255 19.306718 6.03239 26.548656-22.928199 26.548656-41.032532 1.208525-18.098193 12.066827-72.4071-12.065803-67.577095 4.823865-36.204573 8.445346-69.994144 7.241938-86.889953-6.037507-61.543681-48.27447-125.505435-155.675572-130.335441-90.511433 4.830005-149.643182 68.791759-155.676595 130.335441-1.207501 16.895809 1.203408 50.686403 7.236821 86.889953-24.131607-4.830005-13.274328 49.478901-12.065803 67.577095 1.208525 18.104333 7.241938 47.065945 26.549679 41.032532 9.652847 74.820056 41.031509 98.955756 41.031509 98.955756l-1.207501 79.648015c0 0-19.308765 12.066827-102.577237 45.858444-83.269495 34.994002-56.719816 7.241938-124.297934 41.031509-10.861372 4.824889-20.516266 12.066827-28.965705 18.099217C103.757109 709.522656 68.75799 615.395882 68.75799 512.818645 68.75799 269.044596 267.87905 69.923536 511.653099 69.923536L511.653099 69.923536zM511.653099 69.923536" fill="#f0614e" /></svg>