<?xml version="1.0" encoding="iso-8859-1"?>
<!-- Generator: Adobe Illustrator 19.0.0, SVG Export Plug-In . SVG Version: 6.00 Build 0)  -->
<svg version="1.1" id="Capa_1" xmlns="http://www.w3.org/2000/svg" xmlns:xlink="http://www.w3.org/1999/xlink" x="0px" y="0px"
	 viewBox="0 0 476.473 476.473" style="enable-background:new 0 0 476.473 476.473;" xml:space="preserve">
<g>
	<path style="fill:#4DCFE0;" d="M299.363,287.338c0-8.882-6.792-15.673-15.673-15.673h-79.935c-8.882,0-15.673,6.792-15.673,15.673
		V417.95h111.282V287.338z"/>
	<path style="fill:#4DCFE0;" d="M436.245,196.432c0-8.882-6.792-15.673-15.673-15.673h-79.935c-8.882,0-15.673,6.792-15.673,15.673
		V417.95h111.282C436.245,417.95,436.245,196.432,436.245,196.432z"/>
	<path style="fill:#4DCFE0;" d="M162.482,350.032c0-8.882-6.792-15.673-15.673-15.673H66.873c-8.882,0-15.673,6.792-15.673,15.673
		v67.918h111.282V350.032z"/>
</g>
<path style="fill:#3A2C51;" d="M460.8,415.338h-24.555H324.963h-25.6H188.082h-25.6H51.2H31.347v-149.42
	c44.931-7.837,185.992-42.841,271.151-178.155l11.494,57.469c1.567,7.314,7.837,12.539,15.151,12.539c1.045,0,2.09,0,3.135-0.522
	c8.359-1.567,14.106-9.927,12.539-18.286l-19.331-96.653c-1.045-4.18-3.135-7.837-6.792-9.927c-4.18-2.612-8.359-3.135-12.539-2.09
	l-96.131,19.331c-8.359,1.567-14.106,9.927-12.539,18.286c1.567,8.359,9.927,14.106,18.286,12.539l61.649-12.016
	C203.233,189.118,76.8,225.167,31.347,234.571v-98.22c0-8.882-6.792-15.673-15.673-15.673S0,127.469,0,136.35v294.661
	c0,8.882,6.792,15.673,15.673,15.673H460.8c8.882,0,15.673-6.792,15.673-15.673C476.473,422.13,469.682,415.338,460.8,415.338z"/>
<g>
</g>
<g>
</g>
<g>
</g>
<g>
</g>
<g>
</g>
<g>
</g>
<g>
</g>
<g>
</g>
<g>
</g>
<g>
</g>
<g>
</g>
<g>
</g>
<g>
</g>
<g>
</g>
<g>
</g>
</svg>
