<?xml version="1.0" encoding="iso-8859-1"?>
<!-- Generator: Adobe Illustrator 19.0.0, SVG Export Plug-In . SVG Version: 6.00 Build 0)  -->
<svg version="1.1" id="Capa_1" xmlns="http://www.w3.org/2000/svg" xmlns:xlink="http://www.w3.org/1999/xlink" x="0px" y="0px"
	 viewBox="0 0 503.178 503.178" style="enable-background:new 0 0 503.178 503.178;" xml:space="preserve">
<g>
	<g>
		<path style="fill:#00ACEA;" d="M461.614,429.513v33.437H334.658c-0.772-25.154-12.63-48.679-32.392-64.261h0.522
			c12.132-26.561,38.718-43.535,67.918-43.363h16.718C428.399,355.325,461.614,388.54,461.614,429.513L461.614,429.513z"/>
		<polygon style="fill:#00CEB4;" points="418.773,8.941 418.773,127.537 390.038,127.537 390.038,180.305 338.838,127.537 
			274.577,127.537 180.536,127.537 180.536,29.317 180.536,8.941 		"/>
		<path style="fill:#00ACEA;" d="M414.593,238.819c9.398,9.431,14.661,22.212,14.629,35.527
			c-0.187,13.27-5.417,25.972-14.629,35.527c-9.494,9.303-22.234,14.549-35.527,14.629c-27.7,0-50.155-22.455-50.155-50.155
			c0-27.7,22.455-50.155,50.155-50.155C392.359,224.27,405.099,229.516,414.593,238.819z"/>
		<g>
			<path style="fill:#00EFD1;" d="M334.658,463.994v28.735H168.52v-28.735l0,0c0.545-25.357,12.433-49.133,32.392-64.784
				c12.179-9.276,27.011-14.404,42.318-14.629h16.718c15.308,0.225,30.14,5.352,42.318,14.629
				c19.762,15.582,31.62,39.107,32.392,64.261V463.994z"/>
			<path style="fill:#00EFD1;" d="M287.116,268.076c19.553,19.621,19.498,51.377-0.123,70.93
				c-19.621,19.553-51.377,19.498-70.93-0.123c-19.505-19.573-19.505-51.234,0-70.807c9.554-9.212,22.256-14.442,35.527-14.629
				C264.903,253.415,277.685,258.678,287.116,268.076z"/>
		</g>
		<polygon style="fill:#D4E1F4;" points="274.577,127.537 274.577,167.243 177.401,167.243 136.128,196.501 136.128,167.243 
			84.405,167.243 84.405,29.317 180.536,29.317 180.536,127.537 		"/>
		<g>
			<path style="fill:#00ACEA;" d="M199.867,397.643l1.045,1.045c-19.959,15.65-31.847,39.427-32.392,64.784H41.565v-33.959
				c-0.289-40.972,32.692-74.42,73.663-74.708c0.175-0.001,0.35-0.002,0.524-0.002h16.718
				C161.437,354.477,187.867,371.277,199.867,397.643z"/>
			<path style="fill:#00ACEA;" d="M160.16,238.819c9.398,9.431,14.661,22.212,14.629,35.527c0,27.7-22.455,50.155-50.155,50.155
				s-50.155-22.455-50.155-50.155c-0.275-13.361,5.026-26.233,14.629-35.527c9.431-9.398,22.212-14.661,35.527-14.629
				C137.904,224.377,150.606,229.607,160.16,238.819z"/>
		</g>
	</g>
	<g>
		<path style="fill:#083863;" d="M334.658,503.178H168.52c-5.771,0-10.449-4.678-10.449-10.449v-29.78l0,0
			c0.63-28.48,14.065-55.158,36.571-72.62c13.933-10.734,31-16.606,48.588-16.718h16.718c17.588,0.112,34.655,5.985,48.588,16.718
			c22.506,17.463,35.941,44.141,36.571,72.62v29.78C345.107,498.5,340.429,503.178,334.658,503.178L334.658,503.178z
			 M178.969,482.28h145.241v-19.331c-0.622-21.902-10.962-42.391-28.212-55.902c-10.421-7.825-23.022-12.207-36.049-12.539H243.23
			c-13.073,0.073-25.752,4.483-36.049,12.539c-17.389,13.626-27.745,34.337-28.212,56.424L178.969,482.28z"/>
		<path style="fill:#083863;" d="M251.589,364.207c-33.471-0.006-60.599-27.144-60.594-60.615
			c0.006-33.463,27.131-60.588,60.594-60.594c16.105-0.171,31.582,6.246,42.841,17.763c23.65,23.664,23.65,62.017,0,85.682
			C283.171,357.96,267.695,364.377,251.589,364.207z M251.589,263.896c-10.389,0.009-20.348,4.143-27.69,11.494
			c-7.723,7.346-12.071,17.554-12.016,28.212c-0.151,21.929,17.503,39.827,39.432,39.978c10.692,0.074,20.963-4.168,28.486-11.766
			c7.289-7.594,11.4-17.687,11.494-28.212c0.015-10.547-4.112-20.679-11.494-28.212C272.299,267.96,262.147,263.824,251.589,263.896
			L251.589,263.896z"/>
		<path style="fill:#083863;" d="M461.614,473.398H334.658v-20.898h116.506v-22.988c0.001-35.287-28.452-63.974-63.739-64.261
			h-16.718c-25.033,0.021-47.815,14.462-58.514,37.094l-18.808-8.359c13.769-30.312,44.03-49.736,77.322-49.633h16.718
			c46.828,0.287,84.638,38.33,84.637,85.159v33.437C472.063,468.72,467.384,473.398,461.614,473.398z"/>
		<path style="fill:#083863;" d="M379.067,334.949c-33.471,0.014-60.616-27.108-60.63-60.579
			c-0.014-33.471,27.108-60.616,60.579-60.63c33.471-0.014,60.616,27.108,60.63,60.579c0.007,16.076-6.374,31.496-17.738,42.866
			C410.547,328.553,395.137,334.943,379.067,334.949z M379.067,234.639c-10.547-0.015-20.679,4.112-28.212,11.494
			c-15.582,15.43-15.704,40.571-0.274,56.152c7.524,7.598,17.794,11.84,28.486,11.766c21.639,0.29,39.416-17.016,39.706-38.654
			c0.005-0.351,0.005-0.701,0-1.052c0.072-10.558-4.064-20.71-11.494-28.212C399.684,238.845,389.592,234.733,379.067,234.639
			L379.067,234.639z"/>
		<path style="fill:#083863;" d="M166.952,473.398H41.565c-5.771,0-10.449-4.678-10.449-10.449v-33.437
			c-0.001-46.829,37.809-84.872,84.637-85.159h16.718c32.94,0.092,62.949,18.949,77.322,48.588l-19.331,8.882
			c-10.67-22.345-33.23-36.572-57.992-36.571h-16.718c-35.286,0.287-63.74,28.974-63.739,64.261v22.988h114.939V473.398z"/>
		<path style="fill:#083863;" d="M124.634,334.949c-33.471,0.014-60.615-27.108-60.63-60.579
			c-0.014-33.471,27.108-60.615,60.579-60.63c33.471-0.014,60.615,27.108,60.63,60.579c0.007,16.076-6.374,31.496-17.738,42.866
			C156.115,328.553,140.705,334.943,124.634,334.949z M124.634,234.639c-21.929,0-39.706,17.777-39.706,39.706
			c0,21.929,17.777,39.706,39.706,39.706s39.706-17.777,39.706-39.706l0,0c0.118-10.671-4.24-20.903-12.016-28.212
			C144.982,238.783,135.023,234.648,124.634,234.639L124.634,234.639z"/>
		<path style="fill:#083863;" d="M418.773,0.06H180.536c-5.747,0-12.539,3.135-12.539,8.882v12.016H84.405
			c-5.747,0-10.449,2.612-10.449,8.359v137.927c0,5.771,4.678,10.449,10.449,10.449h41.796v18.808
			c-0.052,3.703,1.962,7.128,5.224,8.882c1.373,0.986,3.012,1.532,4.702,1.567c2.075-0.138,4.068-0.863,5.747-2.09l38.661-27.167
			h93.518c6.269,0,8.882-4.702,8.882-10.449v-31.347h51.722l48.065,50.678c1.876,2.116,4.496,3.426,7.314,3.657h5.224
			c4.546-1.173,7.751-5.233,7.837-9.927v-44.408h15.673c5.747,0,10.449-2.09,10.449-7.837V8.941
			c-0.256-5.187-4.668-9.185-9.856-8.93C419.168,0.021,418.97,0.037,418.773,0.06z M262.038,156.794h-84.637
			c-2.103-0.006-4.139,0.735-5.747,2.09l-24.555,17.241v-8.882c-0.279-5.854-5.11-10.456-10.971-10.449H94.854V41.856h73.143v86.204
			c0,5.747,6.792,7.837,12.539,7.837h81.502V156.794z M408.324,114.998h-18.286c-5.747,0-7.837,6.792-7.837,13.061v26.645
			l-34.482-35.527c-2.365-2.412-5.516-3.895-8.882-4.18H188.895V20.958h219.429V114.998z"/>
	</g>
</g>
<g>
</g>
<g>
</g>
<g>
</g>
<g>
</g>
<g>
</g>
<g>
</g>
<g>
</g>
<g>
</g>
<g>
</g>
<g>
</g>
<g>
</g>
<g>
</g>
<g>
</g>
<g>
</g>
<g>
</g>
</svg>
