<svg viewBox="0 0 512 512" xmlns="http://www.w3.org/2000/svg" xmlns:xlink="http://www.w3.org/1999/xlink"><linearGradient id="a" gradientTransform="matrix(1 0 0 -1 0 -13210)" gradientUnits="userSpaceOnUse" x1="0" x2="512" y1="-13466" y2="-13466"><stop offset="0" stop-color="#31d8ff"/><stop offset="1" stop-color="#ff80ff"/></linearGradient><path d="m512 256c0 141.386719-114.613281 256-256 256s-256-114.613281-256-256 114.613281-256 256-256 256 114.613281 256 256zm0 0" fill="url(#a)"/><g fill="#fff"><path d="m432.761719 141.300781c-5.054688-2.550781-11.109375-2.039062-15.664063 1.316407l-113.472656 83.683593v-71.609375c0-8.285156-6.714844-15-15-15h-202.625c-8.285156 0-15 6.714844-15 15v202.617188c0 8.285156 6.714844 15 15 15h202.625c8.285156 0 15-6.714844 15-15v-71.609375l113.472656 83.683593c2.628906 1.9375 5.757813 2.925782 8.90625 2.925782 2.304688 0 4.621094-.53125 6.757813-1.609375 5.054687-2.550781 8.238281-7.730469 8.238281-13.390625v-202.617188c0-5.660156-3.1875-10.839844-8.238281-13.390625zm-159.136719 201.007813h-172.625v-172.617188h172.625zm137.375-14.699219-97.101562-71.609375 97.101562-71.609375zm0 0"/><path d="m187.3125 197.648438c-32.175781 0-58.351562 26.175781-58.351562 58.351562s26.175781 58.351562 58.351562 58.351562 58.351562-26.175781 58.351562-58.351562-26.175781-58.351562-58.351562-58.351562zm0 86.703124c-15.632812 0-28.351562-12.71875-28.351562-28.351562s12.71875-28.351562 28.351562-28.351562 28.351562 12.71875 28.351562 28.351562-12.71875 28.351562-28.351562 28.351562zm0 0"/></g></svg>